<svg width="230" height="40" viewBox="0 0 230 40" fill="none" xmlns="http://www.w3.org/2000/svg">
  <g transform="translate(100, 0)">
    <path fill-rule="evenodd" clip-rule="evenodd" d="M31.9978 22.3721C33.3544 31.446 28.3493 38.3164 19.494 39.5242C19.8363 38.1328 20.3682 33.3637 20.2846 31.4832C22.7777 30.7352 27.0951 29.7897 28.5545 24.5643C25.1493 26.9329 22.1696 27.3069 20.2846 27.4939C20.1021 21.5723 18.4603 13.3339 16.5752 8.59657C17.5482 23.2553 16.028 31.2339 16.028 31.2339C11.3457 31.4832 6.18785 28.1173 5.08241 27.4939C6.29859 30.4859 10.7376 34.8492 15.3591 35.4102C15.0716 37.2931 14.7969 39.1838 14.485 39.9182C7.7352 39.389 1.35256 33.6571 0.315719 25.6694C-0.584974 18.7306 4.37762 11.5157 7.7352 8.59657C11.0928 5.67742 13.6564 4.05675 13.6564 0.0674502C19.0076 2.31144 30.1355 9.91605 31.9978 22.3721ZM10.4039 25.1085C11.8815 25.1085 13.0794 23.8805 13.0794 22.3658C13.0794 20.8511 11.8815 19.6232 10.4039 19.6232C8.92619 19.6232 7.72829 20.8511 7.72829 22.3658C7.72829 23.8805 8.92619 25.1085 10.4039 25.1085ZM24.9108 21.3853C26.3885 21.3853 27.5864 20.1574 27.5864 18.6426C27.5864 17.1279 26.3885 15.9 24.9108 15.9C23.4331 15.9 22.2352 17.1279 22.2352 18.6426C22.2352 20.1574 23.4331 21.3853 24.9108 21.3853Z" fill="#1A2A6C"/>
  </g>
</svg>